<?xml version="1.0" encoding="utf-8"?>
<!-- Generator: Adobe Illustrator 23.0.1, SVG Export Plug-In . SVG Version: 6.00 Build 0)  -->
<svg version="1.1" xmlns="http://www.w3.org/2000/svg" xmlns:xlink="http://www.w3.org/1999/xlink" x="0px" y="0px"
	 viewBox="0 0 512 512" style="enable-background:new 0 0 512 512;" xml:space="preserve">
<style type="text/css">
	.st0{fill:#2FD7D3;}
	.st1{fill:#9FFFFD;}
</style>
<g id="Background">
	<rect x="1.1" class="st0" width="513.1" height="513.1"/>
</g>
<g id="Layer_1">
	<path class="st1" d="M381.7,42.7c-35.1,0-64,28.9-64,64c0,4.1,0.5,8,1.2,11.9l-152.2,88.8c-11.2-9.4-25.4-15.4-41-15.4
		c-35.1,0-64,28.9-64,64s28.9,64,64,64c15.6,0,29.8-5.9,41-15.4l152.2,88.8c-0.7,3.9-1.2,7.9-1.2,12c0,35.1,28.9,64,64,64
		s64-28.9,64-64s-28.9-64-64-64c-15.6,0-29.8,6-41,15.4l-152.2-88.8c0.7-3.9,1.2-7.8,1.2-11.9s-0.5-8-1.2-11.9l152.2-88.8
		c11.2,9.4,25.4,15.4,41,15.4c35.1,0,64-28.9,64-64S416.8,42.7,381.7,42.7z M383.7,85.3c12,0,21.3,9.3,21.3,21.3
		s-9.3,21.3-21.3,21.3c-12,0-21.3-9.3-21.3-21.3S371.7,85.3,383.7,85.3z M127.7,234.7c12,0,21.3,9.3,21.3,21.3
		c0,12-9.3,21.3-21.3,21.3s-21.3-9.3-21.3-21.3C106.4,244,115.7,234.7,127.7,234.7z M383.7,384c12,0,21.3,9.3,21.3,21.3
		s-9.3,21.3-21.3,21.3c-12,0-21.3-9.3-21.3-21.3S371.7,384,383.7,384z"/>
</g>
</svg>
